<?xml version="1.0" standalone="no"?>
<!DOCTYPE svg PUBLIC "-//W3C//DTD SVG 20010904//EN"
 "http://www.w3.org/TR/2001/REC-SVG-20010904/DTD/svg10.dtd">
<svg version="1.0" xmlns="http://www.w3.org/2000/svg"
 width="271.000000pt" height="271.000000pt" viewBox="0 0 271.000000 271.000000"
 preserveAspectRatio="xMidYMid meet">
<metadata>
Created by potrace 1.11, written by Peter Selinger 2001-2013
</metadata>
<g transform="translate(0.000000,271.000000) scale(0.100000,-0.100000)"
fill="#000000" stroke="none">
<path d="M2454 2649 c-64 -18 -113 -91 -115 -171 -1 -24 -9 -56 -17 -73 -13
-26 -15 -154 -14 -997 l2 -968 55 -110 c30 -60 55 -116 55 -123 0 -12 -193
-14 -1167 -15 -643 0 -1175 -1 -1184 -1 -15 -1 -72 -108 -65 -120 2 -3 574 -6
1272 -5 1190 1 1268 2 1280 18 7 10 27 54 45 99 18 45 50 117 71 159 l38 78 0
998 c0 762 -3 1001 -12 1010 -7 7 -13 37 -14 68 -4 116 -111 188 -230 153z
m119 -107 c24 -23 29 -41 21 -79 -4 -20 -10 -21 -89 -21 l-85 0 5 31 c3 18 10
42 16 53 23 45 92 53 132 16z m54 -205 c8 -8 14 -41 16 -80 l2 -67 -127 0
c-143 0 -131 -7 -131 77 0 70 9 82 61 85 84 5 166 -1 179 -15z m15 -1022 c-1
-424 -1 -773 -2 -777 0 -4 -9 -12 -19 -18 -16 -8 -25 -4 -48 20 -38 41 -81 41
-116 -1 -22 -26 -28 -29 -46 -19 -12 6 -21 14 -21 18 -1 9 -1 1422 0 1492 l0
56 126 -1 127 0 -1 -770z m-107 -865 c3 -5 14 -10 24 -10 44 0 44 -24 0 -130
l-42 -101 -28 51 c-26 47 -72 159 -66 161 1 0 10 2 20 4 10 2 28 10 40 19 26
18 43 20 52 6z"/>
<path d="M803 2527 c-4 -7 40 -126 57 -152 4 -5 15 -32 25 -60 10 -27 21 -55
26 -60 7 -10 -25 -91 -161 -415 -27 -63 -74 -176 -105 -250 -32 -74 -63 -148
-70 -165 -7 -16 -43 -102 -80 -190 -37 -88 -73 -176 -81 -195 -126 -294 -331
-786 -329 -788 2 -2 43 -4 93 -5 l90 -2 58 140 c31 77 61 144 66 150 12 14
1237 14 1247 0 4 -5 31 -68 61 -140 29 -72 57 -134 62 -139 7 -9 344 -13 353
-5 2 3 -2 18 -10 34 -7 17 -32 75 -55 130 -23 55 -48 114 -55 130 -7 17 -135
320 -285 675 -150 355 -309 733 -355 840 -45 107 -108 257 -140 333 -32 75
-60 137 -64 138 -59 5 -344 2 -348 -4z m491 -1177 c151 -354 274 -646 271
-648 -4 -5 -1097 -4 -1101 1 -3 2 4 24 15 48 10 24 87 208 171 409 84 201 161
383 170 405 10 22 56 131 102 242 45 111 86 199 90 195 3 -4 130 -297 282
-652z"/>
</g>
</svg>
