<svg id="Layer_1" data-name="Layer 1" xmlns="http://www.w3.org/2000/svg" viewBox="0 0 118.61 131.87"><defs><style>.cls-1{fill:#fff;}</style></defs><title>color</title><path class="cls-1" d="M324.83,479.36a53.88,53.88,0,0,1-11.47-1.64c-25-6.41-45.24-30.84-48.83-56.35a77.29,77.29,0,0,1,1.34-29.75,57.24,57.24,0,0,1,16.26-28.38s13.15-12.24,31.75-14.7c1-.13,2-0.24,2-0.24,2.22-.25,4.1-0.38,5.51-0.45l6.79-.16a71.48,71.48,0,0,1,9.22.8c6.7,1,20.48,3.61,32,13.77,19.36,17,14.9,41.71-.4,54.95-3.19,2.76-6.64,5.24-10,7.8-4.89,3.71-6,8.21-4.09,14.13,1.58,4.77,3.24,10,2.9,14.84a26.66,26.66,0,0,1-4.24,13s-6.3,9.63-17.59,11.71c-0.65.12-2.67,0.41-4.65,0.65a28.85,28.85,0,0,1-3.41.27A23.31,23.31,0,0,1,324.83,479.36Zm2.33-127.67c-27.49-.13-47,10.82-55,32.84-9.41,25.79-5.38,50,12.91,71.12,10.35,11.94,23.28,19.29,39.38,19.87,23.62,0.85,34.15-13.05,27-35.45-0.13-.42-0.27-0.85-0.4-1.27-1.84-5.64-.75-10.62,3.65-14.62a72.64,72.64,0,0,1,9.85-8c16-10.06,21.48-39.68-1.82-54.75A61.42,61.42,0,0,0,327.16,351.69Z" transform="translate(-263.68 -347.67)"/><path class="cls-1" d="M326.77,436.06a15.06,15.06,0,0,1,.75,30.11c-8.19.35-15.57-6.76-15.6-15A15.41,15.41,0,0,1,326.77,436.06Zm0.25,26c6.58,0,10.81-4.16,10.95-10.7,0.14-6.85-4.22-11.3-11-11.28-6.58,0-10.81,4.16-10.95,10.7C315.84,457.67,320.2,462.12,327,462.1Z" transform="translate(-263.68 -347.67)"/><path class="cls-1" d="M325.71,361.22c4.74,0,8.91,3.94,10.41,9.74,1.56,6-.5,12.39-5,15.5-3.7,2.55-7.43,2.72-11.13,0-4.29-3.13-6.33-9.86-4.77-15.66S321,361.18,325.71,361.22Zm6.91,14c0.12-5.5-2.78-9.63-6.84-9.73s-6.88,3.54-7.12,8.78c-0.27,5.83,2.84,10.2,7.15,10.06C329.69,384.16,332.5,380.39,332.62,375.18Z" transform="translate(-263.68 -347.67)"/><path class="cls-1" d="M307.28,388.48c-0.13,7.18-5.49,13.48-11.39,13.38s-10.9-6.68-10.77-13.91,5.41-13.54,11.34-13.35S307.41,381.24,307.28,388.48Zm-4.09,0c0.08-5.52-2.88-9.6-7-9.61-3.92,0-6.81,3.66-7,8.89-0.21,5.5,2.59,9.69,6.62,9.94S303.12,394,303.19,388.44Z" transform="translate(-263.68 -347.67)"/><path class="cls-1" d="M354.14,401.33a12,12,0,0,1-6.92-3.81,12.34,12.34,0,0,1-2.56-5.31c-2.05-7.3,1.59-15.18,7.73-17.12,5-1.59,10.23,1.4,12.53,7.22,2.81,7.1-.22,16.06-6,18.46A9.44,9.44,0,0,1,354.14,401.33Zm7.91-12.78c0.12-5.5-2.79-9.63-6.86-9.72s-6.87,3.55-7.11,8.79c-0.26,5.83,2.85,10.2,7.16,10.05C359.12,397.53,361.94,393.76,362.05,388.55Z" transform="translate(-263.68 -347.67)"/><path class="cls-1" d="M293.09,436.64c-4.44-.15-8.44-3.94-10-9.44-1.69-6.1.52-13,5.15-16.1a8.86,8.86,0,0,1,10.6.06c4.6,3.1,6.75,10.07,5,16.14C302.36,432.79,297.71,436.79,293.09,436.64Zm7.42-13.55c0-5.51-3-9.56-7.09-9.49-3.9.07-6.73,3.78-6.88,9-0.15,5.53,2.68,9.65,6.74,9.82S300.49,428.61,300.52,423.09Z" transform="translate(-263.68 -347.67)"/></svg>